<svg width="8" height="9" viewBox="0 0 8 9" fill="none" xmlns="http://www.w3.org/2000/svg">
<path d="M0.147825 8.36023C0.241067 8.45113 0.366798 8.50094 0.496994 8.49858C0.626797 8.49883 0.75176 8.44932 0.846163 8.36023L6.99286 2.20775V7.51695C6.99286 7.78984 7.21408 8.01106 7.48697 8.01106C7.61968 8.01466 7.74813 7.96398 7.84263 7.87072C7.93713 7.77747 7.9895 7.6497 7.98766 7.51695V1.10526C8.00478 1.0301 8.00438 0.950691 7.98462 0.873323C7.93991 0.698255 7.80321 0.561553 7.62814 0.516843C7.55077 0.497085 7.47137 0.496686 7.3962 0.513803H0.984513C0.711625 0.513803 0.490406 0.735023 0.490406 1.00791C0.490406 1.2808 0.711625 1.50202 0.984513 1.50202H6.30111L0.147825 7.6553C0.0532648 7.7482 0 7.8752 0 8.00776C0 8.14033 0.0532648 8.26733 0.147825 8.36023Z" fill="#1233ED"/>
</svg>
