<svg width="33" height="32" viewBox="0 0 33 32" fill="none" xmlns="http://www.w3.org/2000/svg">
<path fill-rule="evenodd" clip-rule="evenodd" d="M16.8933 13.6533C16.9188 14.5292 16.3821 15.3235 15.56 15.6267C16.631 15.9161 17.3501 16.9195 17.28 18.0267C17.28 20.6933 14.36 20.7733 13.9333 20.7733H9.36V11.3067H13.8667C16.7867 11.3067 16.8933 12.9333 16.8933 13.6533ZM13.4 12.96H11.44V15.1733H13.56C13.8817 15.212 14.2044 15.1094 14.4447 14.8921C14.6851 14.6747 14.8195 14.364 14.8133 14.04C14.8133 12.9228 13.7143 12.9519 13.441 12.9592C13.424 12.9596 13.4101 12.96 13.4 12.96ZM13.6667 19.2H11.44V16.5333H13.6933C14.0759 16.4832 14.4614 16.6012 14.7503 16.8569C15.0393 17.1125 15.2033 17.4809 15.2 17.8667C15.2 19.16 13.8667 19.16 13.6667 19.16V19.2Z" fill="#161E53"/>
<path d="M23.3333 12.1867H19.8V13.0533H23.3333V12.1867Z" fill="#161E53"/>
<path fill-rule="evenodd" clip-rule="evenodd" d="M19.276 14.7678C19.9005 14.1332 20.7637 13.7915 21.6533 13.8267C24.0533 13.8267 24.8 15.8533 24.7467 17.5733H20.2C20.1419 18.0057 20.283 18.4411 20.5836 18.7572C20.8842 19.0734 21.3119 19.2362 21.7467 19.2C22.3166 19.2028 22.8365 18.8753 23.08 18.36H24.56C24.2307 19.7013 22.9765 20.6052 21.6 20.4933C20.7134 20.5343 19.8518 20.1925 19.2345 19.5548C18.6172 18.917 18.3035 18.0448 18.3733 17.16C18.3238 16.271 18.6516 15.4024 19.276 14.7678ZM20.2533 16.0667C20.2035 16.2036 20.1765 16.3477 20.1733 16.4933H22.9867C22.9657 16.1213 22.8254 15.766 22.5867 15.48C22.322 15.2383 21.9712 15.1134 21.6133 15.1333C21.375 15.1232 21.1376 15.1689 20.92 15.2667C20.7443 15.352 20.5896 15.4749 20.4667 15.6267C20.3667 15.7575 20.2942 15.9072 20.2533 16.0667Z" fill="#161E53"/>
<path fill-rule="evenodd" clip-rule="evenodd" d="M24.7467 3H9.33333C6.38781 3 4 5.38781 4 8.33333V23.7467C4 26.6922 6.38781 29.08 9.33333 29.08H24.7467C27.6922 29.08 30.08 26.6922 30.08 23.7467V8.33333C30.08 5.38781 27.6922 3 24.7467 3ZM28.08 23.7467C28.08 25.5876 26.5876 27.08 24.7467 27.08H9.33333C7.49238 27.08 6 25.5876 6 23.7467V8.33333C6 6.49238 7.49238 5 9.33333 5H24.7467C26.5876 5 28.08 6.49238 28.08 8.33333V23.7467Z" fill="#161E53"/>
</svg>
