<svg width="32" height="32" viewBox="0 0 32 32" fill="none" xmlns="http://www.w3.org/2000/svg">
<path d="M19.08 13.5467H20.4133C20.5854 13.5467 20.7502 13.4774 20.8707 13.3545C20.9911 13.2316 21.0569 13.0654 21.0533 12.8933V10.76C21.0545 10.4264 20.7991 10.1478 20.4667 10.12C20.4667 10.12 19.52 10.04 18.36 10.04C15.5067 10.04 13.9333 11.7333 13.9333 14.8V17.16H11.3067C11.1358 17.1563 10.9709 17.2226 10.8501 17.3434C10.7292 17.4642 10.663 17.6292 10.6667 17.8V19.7467C10.663 19.9175 10.7292 20.0824 10.8501 20.2033C10.9709 20.3241 11.1358 20.3903 11.3067 20.3867H13.8933V27.9333H17.7867V20.3867H20.1333C20.4556 20.3834 20.7273 20.1456 20.7733 19.8267L21.0133 17.88C21.0378 17.6957 20.9792 17.5101 20.8533 17.3733C20.7312 17.2368 20.5565 17.1592 20.3733 17.16H17.7867V14.88C17.7863 14.159 18.3593 13.5683 19.08 13.5467Z" fill="#161E53"/>
<path fill-rule="evenodd" clip-rule="evenodd" d="M3 16.2133C3 8.91581 8.91581 3 16.2133 3C19.7177 3 23.0786 4.39212 25.5566 6.8701C28.0346 9.34808 29.4267 12.7089 29.4267 16.2133C29.4267 23.5109 23.5109 29.4267 16.2133 29.4267C8.91581 29.4267 3 23.5109 3 16.2133ZM27.4267 16.2133C27.4267 10.0204 22.4063 5 16.2133 5C10.0265 5.01466 5.01466 10.0265 5 16.2133C5 22.4063 10.0204 27.4267 16.2133 27.4267C22.4063 27.4267 27.4267 22.4063 27.4267 16.2133Z" fill="#161E53"/>
</svg>
