<svg width="32" height="32" viewBox="0 0 32 32" fill="none" xmlns="http://www.w3.org/2000/svg">
<path fill-rule="evenodd" clip-rule="evenodd" d="M11 3H21.2667C25.6849 3 29.2667 6.58172 29.2667 11V21.2667C29.2667 25.6849 25.6849 29.2667 21.2667 29.2667H11C6.58172 29.2667 3 25.6849 3 21.2667V11C3 6.58172 6.58172 3 11 3ZM27.2667 11C27.2593 7.68933 24.5773 5.00733 21.2667 5H11C7.68933 5.00733 5.00733 7.68933 5 11V21.2667C5.00733 24.5773 7.68933 27.2593 11 27.2667H21.2667C24.5773 27.2593 27.2593 24.5773 27.2667 21.2667V11Z" fill="#161E53"/>
<path fill-rule="evenodd" clip-rule="evenodd" d="M10.4 16.1333C10.4073 12.9699 12.9699 10.4073 16.1333 10.4C19.2967 10.4073 21.8593 12.9699 21.8667 16.1333C21.8667 19.2998 19.2998 21.8667 16.1333 21.8667C12.9669 21.8667 10.4 19.2998 10.4 16.1333ZM19.8667 16.1333C19.8667 14.0715 18.1952 12.4 16.1333 12.4C14.0745 12.4073 12.4073 14.0745 12.4 16.1333C12.4 18.1952 14.0715 19.8667 16.1333 19.8667C18.1952 19.8667 19.8667 18.1952 19.8667 16.1333Z" fill="#161E53"/>
<path d="M21.0133 9.00667C21.0133 8.2077 21.661 7.56 22.46 7.56C23.259 7.56 23.9067 8.2077 23.9067 9.00667C23.9067 9.80564 23.259 10.4533 22.46 10.4533C21.661 10.4533 21.0133 9.80564 21.0133 9.00667Z" fill="#161E53"/>
</svg>
