<svg width="48" height="34" viewBox="0 0 48 34" fill="none" xmlns="http://www.w3.org/2000/svg">
<g clip-path="url(#clip0_107_1640)">
<rect x="47.4692" width="34" height="46.6456" rx="17" transform="rotate(90 47.4692 0)" fill="white"/>
<path fill-rule="evenodd" clip-rule="evenodd" d="M48 17C48 7.61116 40.3888 -3.32694e-07 31 -7.43093e-07L18.3544 -1.29585e-06C8.96554 -1.70625e-06 1.35439 7.61116 1.35438 17C1.35438 26.3888 8.96554 34 18.3544 34L31 34C40.3888 34 48 26.3888 48 17ZM21.9603 28.7504C21.8275 28.7509 21.7188 28.6432 21.7188 28.5104L21.7188 25.907C21.7188 25.7742 21.8271 25.6666 21.9599 25.6654C26.3211 25.6257 29.8174 24.5116 29.8174 23.143C29.8174 21.7744 26.3211 20.6602 21.9599 20.6205C21.8271 20.6193 21.7188 20.5117 21.7188 20.3789L21.7188 17.7755C21.7188 17.6427 21.8275 17.535 21.9603 17.5355C31.7884 17.5758 39.7157 20.0709 39.7157 23.143C39.7157 26.215 31.7884 28.7101 21.9603 28.7504ZM36.153 11.2107C35.9225 11.1431 35.9225 10.8167 36.153 10.7491L39.4972 9.76896C39.5996 9.73893 39.67 9.64495 39.67 9.53819L39.67 5.62921C39.67 5.49639 39.5624 5.38873 39.4296 5.38873L28.7282 5.38873C28.5954 5.38873 28.4877 5.49639 28.4877 5.62921L28.4877 8.50206C28.4877 8.63522 28.5959 8.74303 28.7291 8.74254L32.0511 8.73035C32.3282 8.72933 32.3869 9.12067 32.1216 9.20099L28.6585 10.2496C28.5571 10.2803 28.4877 10.3738 28.4877 10.4798L28.4877 11.4894C28.4877 11.5955 28.5572 11.689 28.6587 11.7197L32.1112 12.7618C32.3764 12.8418 32.3183 13.233 32.0412 13.2325L28.7286 13.2264C28.5956 13.2261 28.4877 13.3339 28.4877 13.4668L28.4877 16.3306C28.4877 16.4634 28.5954 16.5711 28.7282 16.5711L39.4296 16.5711C39.5624 16.5711 39.67 16.4634 39.67 16.3306L39.67 12.4216C39.67 12.3148 39.5996 12.2209 39.4972 12.1908L36.153 11.2107ZM27.6069 16.3636C27.6069 16.4964 27.4982 16.6041 27.3653 16.6036C17.5373 16.5633 9.61 14.0682 9.61 10.9961C9.61 7.92411 17.5373 5.42901 27.3653 5.38872C27.4982 5.38818 27.6069 5.4959 27.6069 5.62871L27.6069 8.2321C27.6069 8.36491 27.4986 8.47247 27.3658 8.47368C23.0046 8.51341 19.5083 9.62755 19.5083 10.9961C19.5083 12.3647 23.0046 13.4789 27.3658 13.5186C27.4986 13.5198 27.6069 13.6274 27.6069 13.7602L27.6069 16.3636ZM13.266 21.7293C13.5139 21.7293 13.5997 22.0589 13.3832 22.1797L9.77895 24.1923C9.70286 24.2348 9.65571 24.3151 9.65571 24.4023L9.65571 28.4748C9.65571 28.6077 9.76338 28.7153 9.89619 28.7153L20.5976 28.7153C20.7304 28.7153 20.8381 28.6077 20.8381 28.4748L20.8381 24.7595C20.8381 24.6267 20.7304 24.519 20.5976 24.519L16.9382 24.519C16.6923 24.519 16.6049 24.1937 16.8176 24.0705L20.7181 21.8105C20.7924 21.7675 20.8381 21.6882 20.8381 21.6024L20.8381 17.7735C20.8381 17.6407 20.7304 17.533 20.5976 17.533L9.89619 17.533C9.76338 17.533 9.65571 17.6407 9.65571 17.7735L9.65571 21.4888C9.65571 21.6216 9.76338 21.7293 9.89619 21.7293L13.266 21.7293Z" fill="#141D52"/>
</g>
<defs>
<clipPath id="clip0_107_1640">
<rect x="47.4692" width="34" height="46.6456" rx="17" transform="rotate(90 47.4692 0)" fill="white"/>
</clipPath>
</defs>
</svg>
