<svg width="33" height="32" viewBox="0 0 33 32" fill="none" xmlns="http://www.w3.org/2000/svg">
<path fill-rule="evenodd" clip-rule="evenodd" d="M6.42395 24.046C7.94928 24.6313 9.63995 24.8687 9.65861 24.8713C9.69728 24.878 11.3559 25.1487 14.2333 24.71C17.0666 24.278 19.5106 22.4393 19.5346 22.4207C19.6186 22.366 21.452 21.246 23.4346 17.8913C25.4079 14.5513 25.0706 10.7753 25.0666 10.738C25.0466 10.5273 25.1253 10.3207 25.2826 10.1793C25.2826 10.1793 25.6906 9.80601 26.2346 9.36201C25.86 9.43001 25.5333 9.47801 25.4693 9.48735C25.16 9.52601 24.8746 9.36468 24.7573 9.08468C24.6413 8.80335 24.7279 8.47935 24.9706 8.29535C24.9786 8.29135 25.3786 7.98601 25.8719 7.55801C25.1573 7.79935 24.5493 7.91001 24.5133 7.91668C24.2253 7.96201 23.9466 7.83001 23.812 7.57935C23.8159 7.61401 23.5853 7.39801 22.7706 6.85401C21.9799 6.32735 20.6146 6.30601 20.1559 6.34335C20.1559 6.34335 18.2733 6.57801 17.1239 8.17801C15.9839 9.76335 16.4479 11.6633 16.4519 11.6833C16.5066 11.8927 16.4546 12.1153 16.3146 12.2807C16.1746 12.4447 15.9573 12.526 15.7493 12.514L14.4999 12.406C14.2546 12.3873 12.8759 12.1513 11.4773 11.6567C10.0746 11.162 9.23728 10.6473 8.07861 9.93668C7.30395 9.46201 6.27861 8.46868 5.60528 7.77801C5.39861 8.42201 5.23861 9.37401 5.57328 10.3913C6.11328 12.0393 7.28261 12.7247 7.29328 12.7313C7.54395 12.8687 7.67728 13.1513 7.62661 13.4327C7.57595 13.714 7.35195 13.9313 7.06795 13.9727C6.93728 13.9967 6.60528 14.0033 5.87195 13.8513C5.73195 13.8233 5.59461 13.7887 5.46528 13.7473C5.58528 14.266 5.86795 15.0513 6.53195 15.7407C7.63328 16.8873 8.74795 17.0327 8.79461 17.038C9.12261 17.0767 9.37595 17.3513 9.38528 17.682C9.39461 18.0127 9.16395 18.298 8.83995 18.3567C8.83995 18.3567 8.07995 18.4927 7.60395 18.5393C7.58261 18.5407 7.56128 18.5433 7.53861 18.5447C7.57861 18.61 7.61995 18.6753 7.66128 18.738C7.67328 18.758 8.29461 19.7327 9.33195 20.19C10.3826 20.6527 11.0906 20.6153 11.0959 20.6127C11.3933 20.5873 11.6639 20.766 11.7679 21.0393C11.8719 21.314 11.7893 21.6233 11.5573 21.802C11.5079 21.842 10.3226 22.7527 8.33195 23.5687C7.71328 23.8207 7.05728 23.9673 6.42395 24.046ZM11.1466 26.2953C10.0813 26.2953 9.49328 26.1953 9.45195 26.1873C9.39061 26.1807 7.34395 25.8927 5.58528 25.1447C2.87061 23.994 2.94928 23.61 3.02528 23.2393C3.09328 22.9047 3.48261 22.662 3.82395 22.714C5.34395 22.8927 6.80261 22.7527 7.82661 22.334C8.40661 22.0967 8.91328 21.85 9.33461 21.6233C9.16261 21.5633 8.98261 21.4927 8.79461 21.41C7.36928 20.782 6.56795 19.506 6.53461 19.4513C6.39061 19.23 6.02528 18.6473 5.92128 18.306C5.82395 17.9833 5.81461 17.9447 5.81461 17.9447C5.76661 17.7233 5.83328 17.486 5.99195 17.326C6.03995 17.2767 6.09595 17.2367 6.15595 17.2033C5.96128 17.046 5.76528 16.8673 5.57061 16.666C4.10261 15.138 4.04661 13.3007 4.04528 13.2233L4.01995 12.7167C4.00795 12.47 4.13328 12.238 4.34528 12.1113C4.50395 12.0167 4.69328 11.9953 4.86661 12.042C4.65461 11.6873 4.45995 11.278 4.30661 10.806C3.50661 8.37401 4.78528 6.31935 4.84128 6.23401C4.95195 6.05668 5.13995 5.94335 5.34661 5.92601C5.55728 5.90735 5.75861 5.98868 5.89861 6.14335C6.39861 6.69935 7.89195 8.25801 8.77595 8.79935C9.90528 9.49401 10.6519 9.95135 11.9213 10.3993C13.2266 10.8607 14.4813 11.066 14.6039 11.0767L15.0319 11.114C14.9746 10.1993 15.0786 8.73801 16.0413 7.39935C17.5466 5.30468 19.9306 5.02601 20.0319 5.01668C20.1333 5.00601 22.1693 4.85135 23.5106 5.74468C24.0533 6.10735 24.3906 6.35668 24.6039 6.53401C24.9813 6.44601 25.6239 6.27001 26.1799 5.99668L27.3066 5.44068C27.5453 5.31801 27.8333 5.35268 28.0386 5.52868C28.2426 5.70335 28.3213 5.98335 28.2413 6.23935C28.2079 6.33801 27.9959 6.97801 27.6173 7.58735C27.8519 7.49535 28.0293 7.42068 28.0319 7.41935C28.3066 7.31001 28.6199 7.38735 28.8066 7.61535C28.9919 7.84601 29.0039 8.17001 28.8373 8.41268C28.7479 8.54335 27.9399 9.70468 27.2626 10.246C26.9199 10.5207 26.6146 10.782 26.4159 10.9553C26.4639 12.038 26.4413 15.4233 24.5839 18.5687C22.4039 22.258 20.3613 23.4767 20.2759 23.526C20.2333 23.5647 17.6133 25.5433 14.4346 26.0273C13.0759 26.2367 11.9693 26.2953 11.1466 26.2953Z" fill="#161E53"/>
</svg>
